<?xml version="1.0" encoding="UTF-8"?>
<svg width="39px" height="41px" viewBox="0 0 39 41" version="1.1" xmlns="http://www.w3.org/2000/svg" xmlns:xlink="http://www.w3.org/1999/xlink">
    <!-- Generator: Sketch 58 (84663) - https://sketch.com -->
    <title>Fill 1 Copy 2</title>
    <desc>Created with Sketch.</desc>
    <g id="Symbols" stroke="none" stroke-width="1" fill="none" fill-rule="evenodd">
        <g id="Group-19" transform="translate(-776.000000, -17.000000)" fill="#56BF0D" fill-rule="nonzero">
            <g id="Group-2" transform="translate(777.000000, 18.000000)">
                <path d="M23.5267872,2.46548694 C23.8320664,2.64936538 24.1812093,2.74720576 24.5380282,2.74720576 L28.4030667,2.74720576 C29.6935817,2.74720576 30.8363837,3.58481877 31.234298,4.82045989 L32.4283068,8.52941432 C32.5578755,8.93128208 32.8098463,9.28118181 33.1477519,9.52897826 L36.2746725,11.8212076 C37.3165445,12.5855369 37.7519798,13.9375076 37.3545608,15.1716106 L36.160168,18.8806355 C36.030749,19.282937 36.030749,19.7166985 36.1601227,20.1188591 L37.3545598,23.8280218 C37.7520232,25.0622626 37.3164428,26.4146838 36.2745592,27.1781466 L33.1480478,29.4704401 C32.8098627,29.718733 32.5578678,30.0687419 32.4283749,30.4703743 L31.2342835,34.1795852 C30.8363837,35.4151812 29.6935817,36.2527942 28.4030667,36.2527942 L24.5380282,36.2527942 C24.1217395,36.2527942 23.7158987,36.3859659 23.378095,36.6334762 L20.2513214,38.9259621 C19.2074144,39.691346 17.7927896,39.691346 16.7488858,38.9259645 L13.6222336,36.6335675 C13.2842751,36.3859437 12.8784272,36.2527942 12.4618146,36.2527942 L8.59713733,36.2527942 C7.30662228,36.2527942 6.16382034,35.4151812 5.76591955,34.1795821 L4.57143609,30.4702754 C4.44223291,30.0686449 4.19035147,29.7187936 3.85203818,29.4706186 L0.725831776,27.1782836 C-0.316333286,26.4149322 -0.751870451,25.0626452 -0.35470444,23.827983 L0.840035984,20.119 C0.969455041,19.7166985 0.969455041,19.282937 0.840094858,18.8808184 L-0.354765648,15.1714624 C-0.751827109,13.9371251 -0.316434922,12.5852882 0.725653179,11.8211184 L3.85218493,9.5289094 C4.19036795,9.28112111 4.44222525,8.93137891 4.57148144,8.52958374 L5.76592056,4.82041476 C6.16382034,3.58481877 7.30662228,2.74720576 8.59713733,2.74720576 L12.4618146,2.74720576 C12.8784272,2.74720576 13.2842751,2.6140563 13.6221091,2.3665238 L16.7488826,0.0740378818 C17.7927896,-0.691345961 19.2074144,-0.691345961 20.2513182,0.0740355314 L23.3780327,2.36647815 L23.5267872,2.46548694 Z M22.7869366,3.17307928 L19.6600321,0.880497378 C18.9680849,0.373167541 18.0321191,0.373167541 17.3401688,0.880499728 L14.2132675,3.17307928 C13.7040908,3.5461554 13.0912767,3.74720576 12.4618146,3.74720576 L8.59713733,3.74720576 C7.74197738,3.74720576 6.9829442,4.30353669 6.71778303,5.12694019 L5.52339027,8.83596513 C5.32970291,9.43804584 4.95165557,9.96302214 4.44333496,10.335471 L1.31696105,12.6275643 C0.622691074,13.1366769 0.331742485,14.0400349 0.597131993,14.8650463 L1.79199016,18.574395 C1.98547031,19.1758316 1.98547031,19.8238039 1.79193129,20.4254234 L0.5971932,24.1343991 C0.33172717,24.9596482 0.622742974,25.863215 1.31694996,26.3716987 L4.4434446,28.6642449 C4.95181624,29.0371689 5.32975021,29.5621012 5.52334492,30.163894 L6.71778202,33.8730567 C6.9829442,34.6964633 7.74197738,35.2527942 8.59713733,35.2527942 L12.4618146,35.2527942 C13.0912767,35.2527942 13.7040908,35.4538446 14.213392,35.827012 L17.340172,38.1195026 C18.0321191,38.6268325 18.9680849,38.6268325 19.6600353,38.1195003 L22.7869366,35.8269207 C23.2960676,35.453878 23.9088709,35.2527942 24.5380282,35.2527942 L28.4030667,35.2527942 C29.2582266,35.2527942 30.0172598,34.6964633 30.2824075,33.8731018 L31.4765525,30.1637245 C31.6705569,29.5620045 32.0483775,29.0372297 32.5564995,28.6641707 L35.6833832,26.371604 C36.3773059,25.8631171 36.6683477,24.9594698 36.4026973,24.1345472 L35.2082139,20.4252405 C35.0147337,19.8238039 35.0147337,19.1758316 35.2082592,18.5742541 L36.4026983,14.8650852 C36.6683324,14.0402133 36.3773579,13.136775 35.6833068,12.6276111 L32.5564599,10.3354358 C32.0485382,9.96296144 31.6706043,9.43814266 31.4764844,8.83606404 L30.282422,5.12694333 C30.0172598,4.30353669 29.2582266,3.74720576 28.4030667,3.74720576 L24.5380282,3.74720576 C23.9088709,3.74720576 23.2960676,3.54612201 22.7869366,3.17307928 Z" id="Fill-1-Copy-2"></path>
            </g>
        </g>
    </g>
</svg>