<svg width="649" height="554" viewBox="0 0 649 554" fill="none" xmlns="http://www.w3.org/2000/svg">
<path fill-rule="evenodd" clip-rule="evenodd" d="M440.612 120.391C431.249 130.831 424.9 135.93 420.006 149.458C415.874 160.876 413.009 171.804 398.196 172.908C378.141 174.402 368.923 153.417 383.623 141.111C389.959 135.806 397.927 135.365 402.869 128.165C408.91 119.364 408.508 109.286 419.191 102.512C432.816 93.8727 454.337 104.725 440.612 120.391" fill="#2E3A5B"/>
<path fill-rule="evenodd" clip-rule="evenodd" d="M592.689 189.671C592.332 189.332 591.895 189.068 591.389 188.907C591.001 188.537 590.518 188.251 589.953 188.097L556.659 174.787C555.186 174.386 553.628 175.021 552.853 176.335L519.757 232.633C518.966 233.978 519.199 235.689 520.318 236.774L547.735 260.081C548.132 260.464 549.908 261.498 550.376 261.644C551.951 263.124 554.501 262.766 555.602 260.895L594.577 194.599C595.681 192.722 594.741 190.324 592.689 189.671" fill="#2E3B5C"/>
<path fill-rule="evenodd" clip-rule="evenodd" d="M547.736 260.081L520.319 236.774C519.199 235.688 518.966 233.977 519.758 232.633L552.854 176.336C553.628 175.02 555.187 174.386 556.659 174.788L589.953 188.097C592.102 188.683 593.106 191.152 591.977 193.071L553.003 259.367C551.893 261.254 549.309 261.605 547.736 260.081" fill="#374669"/>
<path fill-rule="evenodd" clip-rule="evenodd" d="M523.537 231.001L554.752 177.637L586.916 190.554L550.062 253.507L523.537 231.001Z" fill="#69748E"/>
<path fill-rule="evenodd" clip-rule="evenodd" d="M535.181 244.622C534.735 245.638 533.818 246.219 533.132 245.919C532.446 245.619 532.25 244.552 532.694 243.534C533.14 242.518 534.056 241.936 534.742 242.236C535.429 242.536 535.625 243.605 535.181 244.622" fill="#2E3A5B"/>
<mask id="mask0" mask-type="alpha" maskUnits="userSpaceOnUse" x="508" y="167" width="97" height="93">
<path fill-rule="evenodd" clip-rule="evenodd" d="M554.752 177.638L523.536 231.001L550.062 253.507L586.915 190.554" fill="white"/>
</mask>
<g mask="url(#mask0)">
<path fill-rule="evenodd" clip-rule="evenodd" d="M561.558 149.112C556.345 155.051 551.719 161.505 547.764 168.347C545.79 171.759 543.924 175.271 542.342 178.883C541.331 181.192 540.2 184.057 541.065 186.594C543.107 192.584 552.362 189.276 554.6 195.676C556.846 202.105 551.605 207.465 548.121 212.156C545.047 216.296 541.994 223.031 546.479 227.389C548.148 229.012 551.356 229.912 551.999 232.401C552.735 235.254 548.978 239.596 547.652 241.871C543.715 248.62 539.57 255.29 535.862 262.167C533.009 267.46 530.663 273.732 533.704 279.483C536.533 284.833 542.519 287.796 547.703 290.374C553.261 293.137 559.507 295.92 565.845 294.466C578.197 291.629 584.953 275.56 590.523 265.712C603.114 243.446 616.955 217.684 613.785 191.192C612.881 183.633 610.37 176.486 606.893 169.738C603.298 162.761 599.149 155.437 593.423 149.977C588.188 144.983 580.603 141.39 573.267 143.284C567.073 144.883 561.654 151.155 562.941 157.818" fill="#838DA3"/>
</g>
<path fill-rule="evenodd" clip-rule="evenodd" d="M523.537 231.001L554.752 177.637L556.075 178.169L524.457 231.781L523.537 231.001Z" fill="#838DA3"/>
<path fill-rule="evenodd" clip-rule="evenodd" d="M334.84 262.492C334.84 262.492 315.81 351.552 293.923 398.4C272.034 445.248 207.923 501.857 207.923 501.857C207.923 501.857 195.828 495.149 196.629 492.231C197.429 489.312 221.847 419.054 257.197 388.578C257.197 388.578 238.222 330.522 259.915 271.569L334.84 262.492Z" fill="#9560D9"/>
<mask id="mask1" mask-type="alpha" maskUnits="userSpaceOnUse" x="220" y="261" width="121" height="135">
<path fill-rule="evenodd" clip-rule="evenodd" d="M313.137 314.252C315.659 316.297 318.132 318.424 320.482 320.67C315.192 339.942 308.779 361.137 301.832 379.461C299.781 378.865 297.804 378.014 295.999 376.949C288.494 372.528 272.034 378.136 266.725 371.231C262.716 366.014 256.908 361.206 250.859 356.427C248.538 335.885 248.364 307.75 257.443 278.828C262.059 281.176 266.551 283.824 270.998 286.454" fill="white"/>
</mask>
<g mask="url(#mask1)">
<path fill-rule="evenodd" clip-rule="evenodd" d="M313.137 314.252C300.05 303.648 285.494 295.031 270.998 286.454V286.454C266.551 283.824 262.059 281.176 257.443 278.828V278.828C248.364 307.75 248.538 335.885 250.859 356.427V356.427C256.908 361.206 262.716 366.014 266.725 371.231V371.231C272.034 378.136 288.494 372.528 295.999 376.949V376.949C297.804 378.014 299.781 378.865 301.832 379.461V379.461C308.779 361.137 315.192 339.942 320.482 320.67V320.67C318.132 318.424 315.659 316.297 313.137 314.252" fill="url(#paint0_linear)"/>
</g>
<mask id="mask2" mask-type="alpha" maskUnits="userSpaceOnUse" x="194" y="409" width="109" height="83">
<path fill-rule="evenodd" clip-rule="evenodd" d="M264.835 419.493C271.736 416.973 278.736 415.109 285.803 413.325C269.692 439.585 244.337 466.68 226.96 483.864C223.716 485.126 220.332 485.883 216.787 485.884C215.03 485.886 213.225 485.679 211.669 484.862C209.174 483.547 207.714 480.886 206.625 478.286C205.719 476.124 204.968 473.853 204.533 471.546C207.36 464.802 210.891 456.891 215.039 448.545C215.049 448.536 215.059 448.527 215.069 448.518" fill="white"/>
</mask>
<g mask="url(#mask2)">
<path fill-rule="evenodd" clip-rule="evenodd" d="M264.835 419.493C246.702 426.115 229.528 435.65 215.069 448.518V448.518C215.059 448.527 215.049 448.536 215.039 448.545V448.545C210.891 456.891 207.36 464.802 204.533 471.546V471.546C204.968 473.853 205.719 476.124 206.625 478.286V478.286C207.714 480.886 209.174 483.547 211.669 484.862V484.862C213.225 485.679 215.03 485.886 216.787 485.884V485.884C220.332 485.883 223.716 485.126 226.96 483.864V483.864C244.337 466.68 269.692 439.585 285.803 413.325V413.325C278.736 415.109 271.736 416.973 264.835 419.493" fill="url(#paint1_linear)"/>
</g>
<mask id="mask3" mask-type="alpha" maskUnits="userSpaceOnUse" x="207" y="348" width="120" height="90">
<path fill-rule="evenodd" clip-rule="evenodd" d="M291.328 357.157C294.693 355.738 304.044 353.032 310.774 353.6C307.158 364.947 303.284 376.058 299.259 386.049C293.712 391.771 287.327 396.631 281.125 401.651C270.214 410.483 259.617 420.005 246.974 426.103C239.819 429.557 231.786 431.778 223.88 431.931C233.177 415.655 244.479 399.544 257.198 388.578C257.198 388.578 256.202 385.532 254.927 380.127C258.13 378.158 261.325 376.18 264.445 374.083" fill="white"/>
</mask>
<g mask="url(#mask3)">
<path fill-rule="evenodd" clip-rule="evenodd" d="M291.328 357.157C281.534 361.241 273.251 368.161 264.445 374.083V374.083C261.325 376.18 258.13 378.158 254.927 380.127V380.127C256.202 385.532 257.198 388.578 257.198 388.578V388.578C244.479 399.544 233.177 415.655 223.88 431.931V431.931C231.786 431.778 239.819 429.557 246.974 426.103V426.103C259.617 420.005 270.214 410.483 281.125 401.651V401.651C287.327 396.631 293.712 391.771 299.259 386.049V386.049C303.284 376.058 307.158 364.947 310.774 353.6V353.6C304.044 353.032 294.693 355.738 291.328 357.157" fill="url(#paint2_linear)"/>
</g>
<mask id="mask4" mask-type="alpha" maskUnits="userSpaceOnUse" x="299" y="252" width="44" height="48">
<path fill-rule="evenodd" clip-rule="evenodd" d="M325.197 263.661C328.063 265.131 331.007 266.371 333.644 267.912C332.44 273.268 330.37 282.25 327.626 293.296C325.568 292.229 323.759 290.668 322.018 289.111C316.48 284.156 311.151 278.969 306.049 273.568C304.477 271.904 301.69 269.469 299.038 266.829" fill="white"/>
</mask>
<g mask="url(#mask4)">
<path fill-rule="evenodd" clip-rule="evenodd" d="M325.197 263.661L299.038 266.829C301.69 269.469 304.477 271.904 306.049 273.568V273.568C311.151 278.969 316.48 284.156 322.018 289.111V289.111C323.759 290.668 325.568 292.229 327.626 293.296V293.296C330.37 282.25 332.44 273.268 333.644 267.912V267.912C331.007 266.371 328.063 265.131 325.197 263.661" fill="url(#paint3_linear)"/>
</g>
<mask id="mask5" mask-type="alpha" maskUnits="userSpaceOnUse" x="118" y="238" width="289" height="267">
<path fill-rule="evenodd" clip-rule="evenodd" d="M334.84 262.492C334.84 262.492 315.81 351.552 293.923 398.4C272.034 445.248 207.924 501.857 207.924 501.857C207.924 501.857 195.829 495.149 196.629 492.231C197.43 489.313 221.848 419.054 257.198 388.578C257.198 388.578 238.222 330.522 259.915 271.569" fill="white"/>
</mask>
<g mask="url(#mask5)">
<path fill-rule="evenodd" clip-rule="evenodd" d="M267.897 316.244C266.256 338.536 270.585 367.381 271.581 389.277C272.406 407.418 196.983 489.137 191.363 497.399C180.329 513.617 170.12 451.116 168.908 437.639C164.05 383.581 169.367 301.651 214.63 263.898C228.248 252.54 264.879 231.323 278.514 255.042C285.154 266.595 268.888 302.777 267.897 316.244" fill="#9560D9"/>
</g>
<path fill-rule="evenodd" clip-rule="evenodd" d="M259.915 271.569C238.222 330.522 257.198 388.578 257.198 388.578V388.578C221.849 419.055 197.43 489.313 196.629 492.231V492.231C195.829 495.149 207.924 501.857 207.924 501.857V501.857C207.924 501.857 272.034 445.248 293.923 398.4V398.4C315.81 351.552 334.84 262.492 334.84 262.492V262.492L259.915 271.569Z" fill="url(#paint4_linear)"/>
<mask id="mask6" mask-type="alpha" maskUnits="userSpaceOnUse" x="118" y="238" width="289" height="267">
<path fill-rule="evenodd" clip-rule="evenodd" d="M259.915 271.569C238.222 330.522 257.198 388.578 257.198 388.578V388.578C221.849 419.055 197.43 489.313 196.629 492.231V492.231C195.829 495.149 207.924 501.857 207.924 501.857V501.857C207.924 501.857 272.034 445.248 293.923 398.4V398.4C315.81 351.552 334.84 262.492 334.84 262.492V262.492L259.915 271.569Z" fill="white"/>
</mask>
<g mask="url(#mask6)">
<path fill-rule="evenodd" clip-rule="evenodd" d="M196.475 477.8C196.475 477.8 200.23 491 219.908 492.841C239.587 494.682 201.445 512.64 201.445 512.64L186.992 492.573L196.475 477.8Z" fill="#EA8B71"/>
</g>
<path fill-rule="evenodd" clip-rule="evenodd" d="M363.227 132.247C366.196 130.07 387.232 115.859 389.323 111.98C391.416 108.102 396.278 132.267 396.278 132.267L383.026 145.034L387.572 148.44C386.921 164.715 351.045 171.275 351.045 171.275L363.227 132.247Z" fill="#EA8B71"/>
<path fill-rule="evenodd" clip-rule="evenodd" d="M506.277 188.262C509.932 193.428 516.277 200.715 514.56 202.079C512.841 203.444 505.266 195.274 504.815 194.847C504.364 194.421 507.993 202.699 507.615 204.904C507.237 207.11 499.051 196.801 499.003 195.046C498.954 193.293 501.258 205.763 499.077 206.262C496.896 206.762 493.8 197.385 493.8 197.385L493.216 192.134L498.785 187.151L506.716 188.25" fill="#DB7963"/>
<path fill-rule="evenodd" clip-rule="evenodd" d="M490.183 200.779C491.797 201.937 494.661 202.324 496.848 200.704C503.583 195.721 509.772 197.24 509.278 195.73C508.069 192.035 496.178 194.056 495.523 194.489C494.868 194.921 500.797 190.77 501.997 190.45C503.196 190.128 523.067 201.985 525.007 199.393C525.405 198.863 503.896 182.207 499.21 182.949C494.522 183.692 482.002 192.847 474.683 196.908C472.511 198.112 471.982 207.991 471.982 207.991L479.557 209.641L490.183 200.779Z" fill="#EA8B71"/>
<path fill-rule="evenodd" clip-rule="evenodd" d="M400.068 158.728C404.8 168.157 415.34 191.151 424.312 224.882C424.312 224.882 452.031 202.523 476.835 193.077C476.835 193.077 486.522 197.217 485.109 207.016C485.109 207.016 442.225 255.617 419.73 257.378C405.947 258.456 378.445 192.746 378.138 187.602C377.907 183.731 389.019 166.607 394.529 158.374C395.899 156.327 398.963 156.526 400.068 158.728" fill="#69C16D"/>
<path fill-rule="evenodd" clip-rule="evenodd" d="M335.184 260.831L270.084 219.094L270.068 289.363L335.184 260.831Z" fill="#2D3A5B"/>
<path fill-rule="evenodd" clip-rule="evenodd" d="M281.091 242.824C281.091 242.824 280.012 204.536 252.121 222.805V222.805C224.229 241.076 223.983 265.31 238.795 287.479V287.479C257.638 315.684 320.779 351.908 320.779 351.908V351.908C295.335 354.099 236.351 423.057 235.118 425.468V425.468C233.886 427.877 240.972 435.44 243.024 436.183V436.183C245.074 436.929 370.492 383.717 373.308 353.838V353.838C373.764 348.98 371.875 343.013 368.347 336.379V336.379C350.182 302.218 288.627 250.497 281.091 242.824V242.824Z" fill="url(#paint5_linear)"/>
<mask id="mask7" mask-type="alpha" maskUnits="userSpaceOnUse" x="154" y="199" width="231" height="243">
<path fill-rule="evenodd" clip-rule="evenodd" d="M281.091 242.824C281.091 242.824 280.012 204.536 252.121 222.805V222.805C224.229 241.076 223.983 265.31 238.795 287.479V287.479C257.638 315.684 320.779 351.908 320.779 351.908V351.908C295.335 354.099 236.351 423.057 235.118 425.468V425.468C233.886 427.877 240.972 435.44 243.024 436.183V436.183C245.074 436.929 370.492 383.717 373.308 353.838V353.838C373.764 348.98 371.875 343.013 368.347 336.379V336.379C350.182 302.218 288.627 250.497 281.091 242.824V242.824Z" fill="white"/>
</mask>
<g mask="url(#mask7)">
<path fill-rule="evenodd" clip-rule="evenodd" d="M241.071 412.478C241.071 412.478 240.251 426.177 258.214 434.421C276.176 442.666 234.243 447.001 234.243 447.001L227.238 423.285L241.071 412.478Z" fill="#EA8B71"/>
</g>
<path fill-rule="evenodd" clip-rule="evenodd" d="M364.182 218.913C364.182 218.913 377.878 213.688 379.96 211.408C388.617 201.926 382.323 191.426 385.54 184.857C388.755 178.287 402.718 162.867 399.338 157.809C398.087 155.94 395.744 154.074 387.572 148.44C384.565 151.748 372.329 164.308 366.064 157.074C360.01 150.085 362.346 136.371 363.226 132.247C358.843 129.405 351.4 124.359 351.4 124.359C343.291 119.274 317.096 132.22 311.709 152.34C306.322 172.461 299.862 190.327 295.19 194.176C290.518 198.024 263.587 217.877 263.587 217.877C263.587 217.877 294.724 261.216 333.754 266.713C333.754 266.713 356.018 223.283 364.182 218.913" fill="#6DC371"/>
<path fill-rule="evenodd" clip-rule="evenodd" d="M273.988 230.275C267.384 223.162 263.587 217.878 263.587 217.878C263.587 217.878 290.517 198.024 295.191 194.176C299.863 190.327 306.322 172.461 311.709 152.341C313.094 147.166 315.856 142.467 319.332 138.426L323.182 141.743C312.67 165.202 315.595 191.37 296.647 210.228C287.91 218.924 280.418 225.774 273.988 230.275" fill="black" fill-opacity="0.1"/>
<mask id="mask8" mask-type="alpha" maskUnits="userSpaceOnUse" x="242" y="137" width="108" height="95">
<path fill-rule="evenodd" clip-rule="evenodd" d="M273.988 230.275C267.384 223.162 263.587 217.878 263.587 217.878C263.587 217.878 290.517 198.024 295.191 194.176C299.863 190.327 306.322 172.461 311.709 152.341C313.094 147.166 315.856 142.467 319.332 138.426L323.182 141.743C312.67 165.202 315.595 191.37 296.647 210.228C287.91 218.924 280.418 225.774 273.988 230.275" fill="white"/>
</mask>
<g mask="url(#mask8)">
</g>
<path fill-rule="evenodd" clip-rule="evenodd" d="M230.625 206.367C230.625 206.367 219.876 220.079 219.933 220.005C219.933 220.005 227.339 230.365 225.913 231.491C224.486 232.616 216.304 225.185 216.304 225.185C216.606 225 207.048 236.043 202.198 238.685C197.349 241.329 203.831 230.512 207.387 225.924C207.571 225.687 194.308 238.195 190.893 238.636C187.478 239.078 197.603 227.299 199.687 225.688C199.868 225.549 186.451 232.282 185.305 229.931C184.518 228.316 191.365 224.311 196.737 221.153C196.992 221.003 188.706 221.502 188.679 219.949C188.644 217.954 207.633 214.558 209.534 213.28C211.852 211.722 219.585 199.621 219.585 199.621L230.625 206.367Z" fill="#EA8B71"/>
<path fill-rule="evenodd" clip-rule="evenodd" d="M333.423 155.229C313.392 161.67 265.386 163.357 265.386 163.357C265.386 163.357 243.249 198.739 227.938 215.314C227.393 215.905 216.723 215.976 210.678 206.699C210.552 206.506 243.36 141.434 251.903 137.962C260.446 134.491 343.726 114.276 352.231 126.19C365.804 145.206 333.423 155.229 333.423 155.229" fill="#6DC371"/>
<path fill-rule="evenodd" clip-rule="evenodd" d="M197.466 489.049C199.915 493.714 204.364 499.008 209.73 500.176C201.941 510.402 167.029 543.767 157.455 551.19C147.975 558.542 163.926 519.689 173.976 515.313C172.084 514.966 170.193 514.619 168.302 514.274C170.199 508.656 170.514 502.1 176.501 500.577C182.215 499.122 186.665 500.467 191.81 496.39C194.187 494.508 196.081 491.772 197.466 489.049" fill="#66BB6A"/>
<mask id="mask9" mask-type="alpha" maskUnits="userSpaceOnUse" x="138" y="486" width="82" height="67">
<path fill-rule="evenodd" clip-rule="evenodd" d="M197.466 489.049C196.081 491.771 194.187 494.508 191.809 496.39V496.39C186.665 500.467 182.214 499.122 176.501 500.576V500.576C170.515 502.1 170.198 508.655 168.302 514.274V514.274C170.193 514.621 172.084 514.965 173.975 515.313V515.313C163.926 519.688 147.974 558.542 157.455 551.189V551.189C167.029 543.767 201.941 510.401 209.731 500.176V500.176C204.364 499.008 199.914 493.714 197.466 489.049" fill="white"/>
</mask>
<g mask="url(#mask9)">
<path fill-rule="evenodd" clip-rule="evenodd" d="M138.519 573.358C137.735 574.105 138.846 534.221 139.148 531.653C139.698 526.95 143.249 523.261 146.291 519.631C149.399 515.923 152.156 511.939 155.176 508.161C157.709 504.991 160.438 501.248 164.35 499.738C166.622 498.862 173.645 496.754 174.911 499.473C179.17 508.616 154.511 558.116 138.519 573.358" fill="#354366"/>
</g>
<mask id="mask10" mask-type="alpha" maskUnits="userSpaceOnUse" x="334" y="111" width="75" height="64">
<path fill-rule="evenodd" clip-rule="evenodd" d="M389.323 111.981C387.231 115.861 366.196 130.069 363.227 132.247V132.247L351.045 171.274C351.045 171.274 386.921 164.715 387.572 148.44V148.44L383.026 145.035L396.279 132.267C396.279 132.267 393.216 117.049 390.906 112.704V112.704C390.305 111.575 389.755 111.18 389.323 111.981V111.981Z" fill="white"/>
</mask>
<g mask="url(#mask10)">
<path fill-rule="evenodd" clip-rule="evenodd" d="M416.676 114.972C416.676 114.972 369.34 118.247 383.026 145.035L408.399 123.545L416.676 114.972Z" fill="#DB7963"/>
</g>
<path fill-rule="evenodd" clip-rule="evenodd" d="M236.426 423.443C237.436 428.614 239.829 433.045 244.638 435.702C215.578 458.385 188.474 467.711 177.174 472.081C165.984 476.408 195.365 441.846 206.248 440.532C206.146 440.687 201.698 438.509 201.48 438.39C204.423 434.588 208.837 428.854 214.024 430.006C227.909 433.089 236.606 423.132 236.426 423.443" fill="#66BB6A"/>
<mask id="mask11" mask-type="alpha" maskUnits="userSpaceOnUse" x="165" y="417" width="82" height="59">
<path fill-rule="evenodd" clip-rule="evenodd" d="M236.426 423.443C236.606 423.132 227.909 433.089 214.024 430.006V430.006C208.837 428.855 204.423 434.589 201.479 438.39V438.39C201.686 438.504 205.706 440.471 206.199 440.538V440.538C195.279 441.947 166 476.402 177.173 472.081V472.081C188.474 467.71 215.579 458.385 244.638 435.701V435.701C239.828 433.046 237.436 428.614 236.426 423.443" fill="white"/>
</mask>
<g mask="url(#mask11)">
<path fill-rule="evenodd" clip-rule="evenodd" d="M162.917 478.771C161.96 479.28 173.75 441.161 174.73 438.769C176.525 434.387 180.938 431.789 184.842 429.11C188.832 426.373 192.559 423.277 196.484 420.449C199.775 418.077 203.409 415.205 207.583 414.802C210.008 414.569 217.337 414.426 217.826 417.385C219.472 427.336 182.418 468.387 162.917 478.771" fill="#364366"/>
</g>
<path fill-rule="evenodd" clip-rule="evenodd" d="M439.267 90.0386C443.854 97.7993 442.466 112.159 429.498 128.077C420.388 139.26 399.562 151.334 395.563 148.822C383.771 141.414 378.524 119.285 386.778 109.935C398.274 96.9132 404.482 81.664 412.753 80.8936C421.024 80.1223 432.814 79.1233 439.267 90.0386" fill="#EA8B71"/>
<mask id="mask12" mask-type="alpha" maskUnits="userSpaceOnUse" x="314" y="42" width="135" height="118">
<path fill-rule="evenodd" clip-rule="evenodd" d="M414.704 42.7297L448.602 106.482L348.016 159.964L314.119 96.2121L414.704 42.7297Z" fill="white"/>
</mask>
<g mask="url(#mask12)">
<path fill-rule="evenodd" clip-rule="evenodd" d="M426.185 115.833C406.922 117.34 395.742 116.386 377.999 125.221C363.02 132.678 349.772 140.848 333.951 127.863C312.533 110.283 323.298 80.5929 349.656 82.2991C361.02 83.0353 369.384 90.1718 381.158 87.6933C395.551 84.6625 404.734 74.2302 421.829 77.6353C443.629 81.9779 454.768 113.262 426.185 115.833" fill="#2E3A5B"/>
</g>
<defs>
<linearGradient id="paint0_linear" x1="250.418" y1="305.27" x2="256.346" y2="357.75" gradientUnits="userSpaceOnUse">
<stop stop-color="#9560D8"/>
<stop offset="1" stop-color="#9560D8"/>
</linearGradient>
<linearGradient id="paint1_linear" x1="227.998" y1="426.711" x2="239.313" y2="456.778" gradientUnits="userSpaceOnUse">
<stop stop-color="#9560D8"/>
<stop offset="1" stop-color="#9560D8"/>
</linearGradient>
<linearGradient id="paint2_linear" x1="318.449" y1="388.262" x2="301.139" y2="355.763" gradientUnits="userSpaceOnUse">
<stop stop-color="#9560D8"/>
<stop offset="1" stop-color="#9560D8"/>
</linearGradient>
<linearGradient id="paint3_linear" x1="322.684" y1="290.896" x2="327.816" y2="274.69" gradientUnits="userSpaceOnUse">
<stop stop-color="#9560D8"/>
<stop offset="1" stop-color="#9560D8"/>
</linearGradient>
<linearGradient id="paint4_linear" x1="262.863" y1="316.395" x2="150.315" y2="438.189" gradientUnits="userSpaceOnUse">
<stop stop-color="#2D3A5B"/>
<stop offset="1" stop-color="#38466A"/>
</linearGradient>
<linearGradient id="paint5_linear" x1="226.517" y1="364.575" x2="348.539" y2="309.742" gradientUnits="userSpaceOnUse">
<stop stop-color="#2D3A5B"/>
<stop offset="1" stop-color="#38466A"/>
</linearGradient>
</defs>
</svg>
