<svg width="291" height="39" viewBox="0 0 291 39" fill="none" xmlns="http://www.w3.org/2000/svg">
<path fill-rule="evenodd" clip-rule="evenodd" d="M83.1045 31.9577C81.4905 31.4887 80.1945 30.8807 79.2165 30.1307L80.9335 26.3207C81.8705 27.0077 82.9845 27.5597 84.2755 27.9767C85.5655 28.3927 86.8565 28.6007 88.1475 28.6007C89.5845 28.6007 90.6465 28.3877 91.3335 27.9607C92.0205 27.5337 92.3635 26.9667 92.3635 26.2587C92.3635 25.7377 92.1605 25.3067 91.7545 24.9627C91.3485 24.6187 90.8285 24.3437 90.1935 24.1347C89.5585 23.9267 88.6995 23.6977 87.6165 23.4477C85.9515 23.0527 84.5875 22.6567 83.5255 22.2617C82.4635 21.8657 81.5535 21.2297 80.7935 20.3557C80.0335 19.4807 79.6535 18.3157 79.6535 16.8577C79.6535 15.5887 79.9975 14.4377 80.6845 13.4077C81.3715 12.3767 82.4065 11.5607 83.7915 10.9557C85.1755 10.3527 86.8675 10.0507 88.8665 10.0507C90.2605 10.0507 91.6245 10.2177 92.9575 10.5507C94.2895 10.8837 95.4555 11.3617 96.4545 11.9867L94.8935 15.8277C92.8735 14.6837 90.8545 14.1097 88.8345 14.1097C87.4185 14.1097 86.3725 14.3397 85.6965 14.7977C85.0195 15.2557 84.6815 15.8587 84.6815 16.6077C84.6815 17.3577 85.0715 17.9157 85.8525 18.2787C86.6335 18.6447 87.8245 19.0027 89.4285 19.3567C91.0935 19.7527 92.4575 20.1477 93.5195 20.5437C94.5815 20.9387 95.4915 21.5637 96.2515 22.4167C97.0115 23.2707 97.3915 24.4267 97.3915 25.8837C97.3915 27.1327 97.0425 28.2717 96.3455 29.3037C95.6475 30.3337 94.6015 31.1507 93.2075 31.7547C91.8125 32.3577 90.1155 32.6597 88.1165 32.6597C86.3885 32.6597 84.7175 32.4267 83.1045 31.9577" fill="black"/>
<path fill-rule="evenodd" clip-rule="evenodd" d="M127.043 17.0924C128.281 18.3314 128.901 20.1904 128.901 22.6664V32.2854H124.029V23.4164C124.029 22.0844 123.753 21.0894 123.202 20.4344C122.65 19.7784 121.864 19.4504 120.844 19.4504C119.699 19.4504 118.793 19.8204 118.127 20.5594C117.46 21.2984 117.127 22.3964 117.127 23.8544V32.2854H112.256V23.4164C112.256 20.7734 111.194 19.4504 109.07 19.4504C107.946 19.4504 107.051 19.8204 106.385 20.5594C105.718 21.2984 105.385 22.3964 105.385 23.8544V32.2854H100.514V15.4844H105.167V17.4204C105.792 16.7124 106.557 16.1714 107.462 15.7964C108.368 15.4214 109.362 15.2344 110.444 15.2344C111.631 15.2344 112.703 15.4684 113.661 15.9374C114.619 16.4054 115.389 17.0874 115.972 17.9834C116.659 17.1084 117.528 16.4324 118.58 15.9524C119.631 15.4744 120.781 15.2344 122.031 15.2344C124.133 15.2344 125.804 15.8544 127.043 17.0924" fill="black"/>
<path fill-rule="evenodd" clip-rule="evenodd" d="M141.892 28.6784C142.538 28.2934 142.996 27.7264 143.266 26.9764V25.2594H139.925C137.927 25.2594 136.927 25.9144 136.927 27.2264C136.927 27.8514 137.172 28.3454 137.661 28.7094C138.15 29.0744 138.821 29.2564 139.675 29.2564C140.507 29.2564 141.246 29.0644 141.892 28.6784M146.045 17.0924C147.441 18.3314 148.138 20.1994 148.138 22.6984V32.2854H143.579V30.1934C142.663 31.7544 140.955 32.5354 138.457 32.5354C137.166 32.5354 136.047 32.3174 135.1 31.8794C134.153 31.4424 133.43 30.8384 132.93 30.0684C132.43 29.2984 132.18 28.4234 132.18 27.4454C132.18 25.8834 132.768 24.6554 133.945 23.7604C135.121 22.8654 136.937 22.4164 139.394 22.4164H143.266C143.266 21.3554 142.944 20.5384 142.298 19.9654C141.653 19.3934 140.685 19.1074 139.394 19.1074C138.499 19.1074 137.619 19.2474 136.755 19.5284C135.891 19.8094 135.157 20.1904 134.554 20.6684L132.805 17.2644C133.721 16.6184 134.819 16.1194 136.1 15.7654C137.38 15.4114 138.697 15.2344 140.05 15.2344C142.652 15.2344 144.651 15.8544 146.045 17.0924" fill="black"/>
<path fill-rule="evenodd" clip-rule="evenodd" d="M159.552 15.859C160.54 15.443 161.68 15.234 162.972 15.234V19.731C162.43 19.69 162.066 19.669 161.878 19.669C160.484 19.669 159.391 20.059 158.6 20.84C157.808 21.621 157.412 22.792 157.412 24.353V32.286H152.541V15.484H157.195V17.702C157.777 16.889 158.563 16.276 159.552 15.859" fill="black"/>
<path fill-rule="evenodd" clip-rule="evenodd" d="M177.306 31.4733C176.827 31.8273 176.239 32.0933 175.541 32.2703C174.844 32.4473 174.11 32.5353 173.34 32.5353C171.341 32.5353 169.795 32.0253 168.702 31.0053C167.609 29.9853 167.063 28.4863 167.063 26.5083V19.6063H164.471V15.8593H167.063V11.7683H171.934V15.8593H176.119V19.6063H171.934V26.4463C171.934 27.1543 172.117 27.7003 172.481 28.0853C172.845 28.4703 173.361 28.6623 174.027 28.6623C174.797 28.6623 175.452 28.4543 175.994 28.0383L177.306 31.4733Z" fill="black"/>
<path fill-rule="evenodd" clip-rule="evenodd" d="M180.053 31.6608C179.47 31.0788 179.179 30.3488 179.179 29.4748C179.179 28.5798 179.47 27.8558 180.053 27.3048C180.636 26.7538 181.355 26.4768 182.208 26.4768C183.062 26.4768 183.78 26.7538 184.363 27.3048C184.946 27.8558 185.238 28.5798 185.238 29.4748C185.238 30.3488 184.946 31.0788 184.363 31.6608C183.78 32.2438 183.062 32.5358 182.208 32.5358C181.355 32.5358 180.636 32.2438 180.053 31.6608" fill="black"/>
<path fill-rule="evenodd" clip-rule="evenodd" d="M201.54 15.5309C200.748 14.8759 199.593 14.5479 198.073 14.5479H193.951V22.1679H198.073C199.593 22.1679 200.748 21.8349 201.54 21.1679C202.331 20.5019 202.727 19.5649 202.727 18.3569C202.727 17.1299 202.331 16.1869 201.54 15.5309V15.5309ZM202.82 32.2859L198.604 26.1959H198.354H193.951V32.2859H188.892V10.4259H198.354C200.291 10.4259 201.972 10.7479 203.398 11.3929C204.824 12.0389 205.922 12.9549 206.692 14.1409C207.463 15.3279 207.849 16.7329 207.849 18.3569C207.849 19.9809 207.458 21.3819 206.677 22.5569C205.896 23.7339 204.788 24.6349 203.352 25.2599L208.254 32.2859H202.82Z" fill="black"/>
<path fill-rule="evenodd" clip-rule="evenodd" d="M216.465 19.8561C215.717 20.4811 215.258 21.3351 215.092 22.4171H223.367C223.199 21.3551 222.742 20.5071 221.992 19.8721C221.244 19.2371 220.326 18.9191 219.244 18.9191C218.141 18.9191 217.215 19.2321 216.465 19.8561M227.863 25.2591H215.154C215.383 26.3001 215.924 27.1231 216.777 27.7261C217.631 28.3301 218.694 28.6311 219.963 28.6311C220.838 28.6311 221.613 28.5021 222.289 28.2421C222.967 27.9811 223.596 27.5701 224.18 27.0071L226.772 29.8181C225.19 31.6291 222.877 32.5361 219.838 32.5361C217.944 32.5361 216.268 32.1661 214.811 31.4261C213.354 30.6881 212.229 29.6631 211.438 28.3501C210.647 27.0391 210.251 25.5501 210.251 23.8841C210.251 22.2411 210.642 20.7571 211.422 19.4351C212.203 18.1131 213.276 17.0831 214.639 16.3431C216.002 15.6041 217.527 15.2341 219.213 15.2341C220.858 15.2341 222.348 15.5881 223.68 16.2961C225.012 17.0041 226.059 18.0191 226.819 19.3411C227.578 20.6641 227.957 22.1991 227.957 23.9471C227.957 24.0091 227.926 24.4471 227.863 25.2591" fill="black"/>
<path fill-rule="evenodd" clip-rule="evenodd" d="M239.357 28.6784C240.002 28.2934 240.46 27.7264 240.731 26.9764V25.2594H237.389C235.39 25.2594 234.391 25.9144 234.391 27.2264C234.391 27.8514 234.635 28.3454 235.125 28.7094C235.614 29.0744 236.286 29.2564 237.139 29.2564C237.972 29.2564 238.711 29.0644 239.357 28.6784M243.51 17.0924C244.905 18.3314 245.602 20.1994 245.602 22.6984V32.2854H241.043V30.1934C240.127 31.7544 238.42 32.5354 235.921 32.5354C234.63 32.5354 233.511 32.3174 232.564 31.8794C231.617 31.4424 230.893 30.8384 230.394 30.0684C229.894 29.2984 229.644 28.4234 229.644 27.4454C229.644 25.8834 230.232 24.6554 231.409 23.7604C232.585 22.8654 234.401 22.4164 236.858 22.4164H240.731C240.731 21.3554 240.408 20.5384 239.762 19.9654C239.117 19.3934 238.149 19.1074 236.858 19.1074C235.962 19.1074 235.083 19.2474 234.219 19.5284C233.355 19.8094 232.622 20.1904 232.018 20.6684L230.269 17.2644C231.185 16.6184 232.283 16.1194 233.564 15.7654C234.844 15.4114 236.161 15.2344 237.514 15.2344C240.117 15.2344 242.115 15.8544 243.51 17.0924" fill="black"/>
<mask id="mask0" mask-type="alpha" maskUnits="userSpaceOnUse" x="0" y="0" width="291" height="40">
<path fill-rule="evenodd" clip-rule="evenodd" d="M0 39.0002H290.572V0.000244141H0V39.0002Z" fill="white"/>
</mask>
<g mask="url(#mask0)">
<path fill-rule="evenodd" clip-rule="evenodd" d="M250.005 32.2863H254.877V9.11426H250.005V32.2863Z" fill="black"/>
<path fill-rule="evenodd" clip-rule="evenodd" d="M271.46 31.4733C270.981 31.8273 270.393 32.0933 269.695 32.2703C268.998 32.4473 268.264 32.5353 267.494 32.5353C265.495 32.5353 263.949 32.0253 262.856 31.0053C261.764 29.9853 261.217 28.4863 261.217 26.5083V19.6063H258.625V15.8593H261.217V11.7683H266.089V15.8593H270.273V19.6063H266.089V26.4463C266.089 27.1543 266.271 27.7003 266.635 28.0853C266.999 28.4703 267.515 28.6623 268.181 28.6623C268.951 28.6623 269.606 28.4543 270.148 28.0383L271.46 31.4733Z" fill="black"/>
<path fill-rule="evenodd" clip-rule="evenodd" d="M290.572 15.484L282.983 33.316C282.213 35.253 281.26 36.616 280.126 37.407C278.991 38.198 277.622 38.593 276.019 38.593C275.145 38.593 274.281 38.459 273.427 38.188C272.573 37.917 271.876 37.543 271.335 37.063L273.115 33.597C273.49 33.93 273.922 34.19 274.411 34.378C274.9 34.565 275.384 34.659 275.863 34.659C276.529 34.659 277.07 34.498 277.487 34.174C277.903 33.852 278.278 33.316 278.611 32.567L278.674 32.411L271.397 15.484H276.426L281.141 26.882L285.887 15.484H290.572Z" fill="black"/>
<path fill-rule="evenodd" clip-rule="evenodd" d="M42.7237 12.6022L38.0317 9.89316L34.0327 12.2022L39.7237 15.4892V35.0002H3.99969V15.4002L20.4427 4.35616L26.0327 7.58316L30.0327 5.27416L21.3627 0.26816C20.7017 -0.11384 19.8807 -0.0858401 19.2467 0.34016L0.884695 12.6732C0.331695 13.0452 -0.000305176 13.6672 -0.000305176 14.3332V37.0002C-0.000305176 38.1052 0.895695 39.0002 1.99969 39.0002H41.7237C42.8277 39.0002 43.7237 38.1052 43.7237 37.0002V14.3332C43.7237 13.6202 43.3427 12.9582 42.7237 12.6022" fill="#66BB6A"/>
<path fill-rule="evenodd" clip-rule="evenodd" d="M62.0645 39.0006H50.7025C49.5975 39.0006 48.7025 38.1046 48.7025 37.0006C48.7025 35.8966 49.5975 35.0006 50.7025 35.0006H60.0645V15.3996L43.6225 4.35563L24.3405 15.4886V26.1986C24.3405 27.3036 23.4455 28.1986 22.3405 28.1986C21.2365 28.1986 20.3405 27.3036 20.3405 26.1986V14.3336C20.3405 13.6196 20.7215 12.9586 21.3405 12.6026L42.7025 0.268633C43.3615 -0.113367 44.1825 -0.0863674 44.8175 0.340633L63.1795 12.6736C63.7325 13.0456 64.0645 13.6676 64.0645 14.3336V37.0006C64.0645 38.1046 63.1685 39.0006 62.0645 39.0006" fill="#66BB6A"/>
</g>
</svg>
